# xmcd CD database file
#
# Track frame offsets:
#	150
#	78430
#	109015
#	146343
#	149301
#	171888
#
# Disc length: 2768 seconds
#
# Revision: 0
# Processed by: cddbd v1.5.1PL0 Copyright (c) Steve Scherf et al.
# Submitted via: CDex 1.51
#
DISCID=4a0ace06
DTITLE=Bola Sete - At the Monterey Jazz Festival
DYEAR=1966
DGENRE=Jazz
TTITLE0=Black Orpheus Medley
TTITLE1=Soul Samba
TTITLE2=Flamenco
TTITLE3=Spoken Introduction
TTITLE4=Coisa Número Um
TTITLE5=Satin Doll
EXTD=YEAR: 1966
EXTT0=
EXTT1=
EXTT2=
EXTT3=
EXTT4=
EXTT5=
PLAYORDER=
